<?xml version="1.0" encoding="utf-8"?>
<!-- Generator: Adobe Illustrator 24.3.0, SVG Export Plug-In . SVG Version: 6.00 Build 0)  -->
<svg version="1.1" id="Camada_1" xmlns="http://www.w3.org/2000/svg" xmlns:xlink="http://www.w3.org/1999/xlink" x="0px" y="0px"
	 viewBox="0 0 588.38 158.35" style="enable-background:new 0 0 588.38 158.35;" xml:space="preserve">
<style type="text/css">
	.st0{fill:#9F3316;}
	.st1{fill:#F6A043;}
	.st2{fill:#80B2B3;}
</style>
<g>
	<g>
		<path class="st0" d="M49.77,37.35c-1.55,0.53-3.27,1.4-5.16,2.61c-1.89,1.21-3.63,2.58-5.24,4.09c-1.61,1.52-2.97,3.03-4.08,4.55
			c-1.11,1.52-1.66,2.84-1.66,3.98c0,0.91,0.5,1.59,1.5,2.05c-1.55,0.23-2.99,0.34-4.33,0.34c-2.66,0-5.21-0.38-7.65-1.14
			c-2.44-0.76-4.6-1.78-6.49-3.07c-1.89-1.29-3.38-2.78-4.49-4.49c-1.11-1.7-1.66-3.5-1.66-5.4c0-2.57,1.05-4.98,3.16-7.22
			c2.11-2.23,4.88-4.32,8.32-6.25c3.44-1.93,7.32-3.65,11.65-5.17c4.33-1.52,8.79-2.8,13.39-3.86c4.6-1.06,9.09-1.91,13.48-2.56
			c4.38-0.64,8.29-1,11.73-1.08c1.11,0,2.19-0.02,3.24-0.06c1.05-0.04,2.19-0.06,3.41-0.06c5.43,0,11.01,0.28,16.72,0.85
			c5.71,0.57,10.9,1.67,15.56,3.3c4.66,1.63,8.49,3.9,11.48,6.82c2.99,2.92,4.49,6.69,4.49,11.31c0,2.88-0.78,5.47-2.33,7.79
			c-1.55,2.31-3.36,4.26-5.41,5.85c-2.05,1.59-4.08,2.84-6.07,3.75c-2,0.91-3.38,1.44-4.16,1.59c8.43,0.61,14.72,2.65,18.88,6.14
			c4.16,3.49,6.24,7.73,6.24,12.73c0,3.18-0.81,6.23-2.41,9.15c-1.61,2.92-4.02,5.59-7.24,8.01c-3.22,2.42-7.27,4.53-12.15,6.31
			c-4.88,1.78-10.65,3.13-17.3,4.03c-3.99,0.53-8.88,1.12-14.64,1.76c-5.77,0.64-11.56,1.53-17.39,2.67
			c-5.82,1.14-11.2,2.63-16.14,4.49c-4.94,1.86-8.57,4.22-10.9,7.1c-0.67-1.52-1.14-3.07-1.41-4.66c-0.28-1.59-0.42-3.15-0.42-4.66
			c0-1.36,0.11-2.65,0.33-3.86c0.22-1.21,0.5-2.27,0.83-3.18c0.77-2.2,2.19-4.05,4.24-5.57c2.05-1.52,4.52-2.8,7.4-3.86
			c2.88-1.06,6.04-1.93,9.48-2.61c3.44-0.68,6.88-1.25,10.32-1.7c3.44-0.46,6.76-0.83,9.98-1.14c3.22-0.3,6.04-0.64,8.49-1.02
			c6.21-0.91,10.67-2.48,13.39-4.72c2.72-2.23,4.08-4.49,4.08-6.76s-0.86-3.96-2.58-5.06c-1.72-1.1-3.91-1.89-6.57-2.39
			c-2.66-0.49-5.66-0.78-8.98-0.85c-3.33-0.07-6.66-0.23-9.98-0.45c-0.22,3.86-0.69,7.2-1.41,10c-0.72,2.8-1.91,5.1-3.58,6.88
			c-1.66,1.78-3.86,3.11-6.57,3.98c-2.72,0.87-6.13,1.31-10.23,1.31c-3.88,0-7.3-0.61-10.23-1.82c-2.94-1.21-4.41-3.14-4.41-5.8
			v-0.68c2,0,3.47-0.78,4.41-2.33c0.94-1.55,1.61-3.56,2-6.02c0.39-2.46,0.64-5.25,0.75-8.35c0.11-3.11,0.25-6.23,0.42-9.38
			c0.17-3.14,0.53-6.14,1.08-8.98C47.49,41.72,48.44,39.32,49.77,37.35z M74.89,50.42c1,0.08,2,0.11,3,0.11h2.99
			c1.44,0,3.08-0.11,4.91-0.34c1.83-0.23,3.52-0.64,5.07-1.25c1.55-0.61,2.85-1.48,3.91-2.61c1.05-1.14,1.58-2.61,1.58-4.43
			c0-1.59-0.91-2.97-2.74-4.15c-1.83-1.17-4.35-1.95-7.57-2.33l-5.32-0.57c-1.44,2.27-2.69,4.83-3.74,7.67
			C75.92,45.36,75.22,47.99,74.89,50.42z"/>
	</g>
	<path class="st1" d="M79.02,118.73c-1.82,0.6-3.61,1.07-5.39,1.41c-1.78,0.35-3.51,0.52-5.18,0.52c-2.03,0-3.85-0.26-5.45-0.78
		c-1.6-0.52-2.96-1.23-4.09-2.12c-1.13-0.89-1.98-1.95-2.56-3.16c-0.58-1.22-0.87-2.52-0.87-3.91c0-1.09,0.11-2.21,0.33-3.35
		c0.22-1.14,0.44-2.26,0.65-3.35c0.22-1.09,0.44-2.15,0.65-3.16c0.22-1.02,0.33-1.95,0.33-2.79c0-0.99-0.2-1.86-0.6-2.61
		c-0.4-0.74-1.11-1.12-2.12-1.12H54.4c0.14-0.99,0.6-1.85,1.36-2.57c0.76-0.72,1.72-1.33,2.89-1.82c1.16-0.5,2.45-0.86,3.87-1.08
		c1.42-0.22,2.85-0.33,4.3-0.33c2.03,0,3.92,0.21,5.67,0.63c1.74,0.42,3.09,1.05,4.03,1.9l0.65,0.67c2.03-1.09,4.03-2,5.99-2.72
		c1.96-0.72,4.43-1.08,7.41-1.08c1.96,0,3.67,0.22,5.12,0.67c1.45,0.45,2.67,1.05,3.65,1.82c0.98,0.77,1.71,1.66,2.18,2.68
		c0.47,1.02,0.71,2.07,0.71,3.16c0,1.29-0.35,2.62-1.04,3.98c-0.69,1.37-1.73,2.62-3.11,3.76c-1.38,1.14-3.09,2.08-5.12,2.83
		c-2.03,0.74-4.36,1.12-6.97,1.12c-2.69,0-4.56-0.53-5.61-1.6c-1.05-1.07-1.58-2.2-1.58-3.39c0-1.19,0.34-2.08,1.04-2.68
		c0.69-0.6,1.54-0.89,2.56-0.89c0.36,0,0.71,0.01,1.04,0.04c0.33,0.03,0.64,0.04,0.93,0.04c0.51,0,0.89-0.09,1.14-0.26
		c0.25-0.17,0.38-0.53,0.38-1.08c0-0.64-0.22-1.09-0.65-1.34c-0.44-0.25-0.91-0.37-1.42-0.37c-0.8,0-1.73,0.2-2.78,0.6
		c-1.05,0.4-2.05,0.84-3,1.34c-0.51,1.74-1.09,3.62-1.74,5.66c-0.65,2.04-0.98,4.39-0.98,7.07c0,0.84,0.05,1.64,0.16,2.38
		s0.31,1.46,0.6,2.16c0.29,0.74,0.82,1.41,1.58,2.01C78.42,118.21,78.88,118.58,79.02,118.73z"/>
	<path class="st1" d="M127.62,118.73c-1.82,0.6-3.61,1.07-5.39,1.41c-1.78,0.35-3.51,0.52-5.18,0.52c-1.96,0-3.74-0.25-5.34-0.74
		c-1.6-0.5-2.96-1.18-4.09-2.05c-1.13-0.87-2-1.9-2.62-3.09c-0.62-1.19-0.93-2.48-0.93-3.87c0-1.09,0.13-2.22,0.38-3.39
		c0.25-1.17,0.51-2.31,0.76-3.42c0.25-1.12,0.51-2.18,0.76-3.2c0.25-1.02,0.38-1.95,0.38-2.79c0-0.89-0.24-1.7-0.71-2.42
		c-0.47-0.72-1.18-1.08-2.12-1.08h-0.22c0.14-0.99,0.6-1.85,1.36-2.57c0.76-0.72,1.72-1.33,2.89-1.82c1.16-0.5,2.45-0.86,3.87-1.08
		c1.42-0.22,2.85-0.33,4.3-0.33c3.56,0,6.36,0.57,8.39,1.71c2.03,1.14,3.05,2.73,3.05,4.76c0,0.99-0.16,2.02-0.49,3.09
		c-0.33,1.07-0.69,2.23-1.09,3.5c-0.4,1.27-0.76,2.64-1.09,4.13c-0.33,1.49-0.49,3.13-0.49,4.91c0,0.84,0.05,1.66,0.16,2.46
		c0.11,0.79,0.31,1.54,0.6,2.23c0.29,0.74,0.8,1.41,1.53,2.01C127.04,118.21,127.47,118.58,127.62,118.73z M118.36,73.4
		c2.62,0,4.78,0.61,6.48,1.82c1.71,1.22,2.56,2.69,2.56,4.43c0,1.04-0.31,2.02-0.93,2.94c-0.62,0.92-1.45,1.74-2.51,2.46
		c-1.05,0.72-2.27,1.28-3.65,1.67c-1.38,0.4-2.8,0.6-4.25,0.6c-2.62,0-4.79-0.61-6.54-1.82c-1.74-1.22-2.62-2.72-2.62-4.5
		c0-1.04,0.33-2.02,0.98-2.94c0.65-0.92,1.51-1.72,2.56-2.42c1.05-0.69,2.27-1.24,3.65-1.64C115.49,73.6,116.9,73.4,118.36,73.4z"/>
	<path class="st1" d="M149.09,116.87c-0.07,0.45-0.65,0.91-1.74,1.38c-1.09,0.47-2.42,0.91-3.98,1.3c-1.56,0.4-3.23,0.73-5.01,1
		c-1.78,0.27-3.4,0.41-4.85,0.41c-1.89,0-3.14-0.21-3.76-0.63c-0.62-0.42-0.93-1.15-0.93-2.2c0-1.19,0.05-2.46,0.16-3.8
		c0.11-1.34,0.25-2.65,0.44-3.95c0.18-1.29,0.38-2.48,0.6-3.57l0.54-2.83c0.29-1.69,0.49-3.16,0.6-4.43
		c0.11-1.27,0.16-2.32,0.16-3.16c0-1.94-0.36-3-1.09-3.2c0.65-1.04,2.11-1.91,4.36-2.61c2.25-0.69,4.65-1.04,7.19-1.04
		c2.11,0,4.05,0.3,5.83,0.89c1.78,0.6,3,1.56,3.65,2.9c2.54-1.09,5.23-2.02,8.06-2.79c2.83-0.77,5.52-1.15,8.06-1.15
		c1.89,0,3.61,0.24,5.18,0.71c1.56,0.47,2.9,1.13,4.03,1.97c1.13,0.84,2,1.82,2.62,2.94c0.62,1.12,0.93,2.3,0.93,3.54
		c0,1.19-0.16,2.42-0.49,3.68c-0.33,1.27-0.69,2.49-1.09,3.68c-0.4,1.19-0.76,2.33-1.09,3.42c-0.33,1.09-0.49,2.06-0.49,2.9
		c0,0.79,0.22,1.49,0.65,2.08c0.44,0.6,1.13,0.89,2.07,0.89h0.33c-0.15,0.99-0.6,1.85-1.36,2.57c-0.76,0.72-1.73,1.33-2.89,1.82
		c-1.16,0.5-2.47,0.86-3.92,1.08c-1.45,0.22-2.91,0.33-4.36,0.33c-3.63,0-6.45-0.56-8.44-1.67c-2-1.12-3-2.82-3-5.1
		c0-0.84,0.13-1.74,0.38-2.68c0.25-0.94,0.54-1.91,0.87-2.9c0.33-0.99,0.64-2,0.93-3.01c0.29-1.02,0.44-2,0.44-2.94
		c0-0.84-0.22-1.44-0.65-1.79c-0.44-0.35-1.02-0.52-1.74-0.52c-0.73,0-1.53,0.14-2.4,0.41c-0.87,0.27-1.74,0.61-2.62,1
		c-0.22,2.53-0.53,5-0.93,7.41C149.94,111.65,149.52,114.19,149.09,116.87z"/>
	<path class="st1" d="M213.59,93.05c0.36-3.08,0.67-5.99,0.93-8.75c0.25-2.75,0.38-4.9,0.38-6.44c0-1.19-0.09-2.17-0.27-2.94
		c-0.18-0.77-0.53-1.25-1.04-1.45c0.22-1.44,1.34-2.53,3.38-3.28c2.03-0.74,4.29-1.12,6.76-1.12c1.38,0,2.74,0.12,4.09,0.37
		c1.34,0.25,2.56,0.62,3.65,1.12c1.09,0.5,1.96,1.14,2.62,1.94c0.65,0.79,0.98,1.71,0.98,2.75v0.74c-0.87,6.1-1.76,12.22-2.67,18.35
		c-0.91,6.13-1.65,12.2-2.23,18.2c-0.15,1.54-0.6,2.84-1.36,3.91c-0.76,1.07-1.73,1.95-2.89,2.64c-1.16,0.7-2.45,1.2-3.87,1.53
		c-1.42,0.32-2.82,0.48-4.2,0.48c-1.53,0-2.98-0.16-4.36-0.48c-1.38-0.32-2.58-0.78-3.6-1.38c-2.11,0.7-4.21,1.13-6.32,1.3
		c-2.11,0.17-4,0.26-5.67,0.26c-2.54,0-4.83-0.4-6.86-1.19c-2.03-0.79-3.76-1.85-5.18-3.16c-1.42-1.31-2.51-2.84-3.27-4.58
		c-0.76-1.74-1.14-3.55-1.14-5.43c0-2.03,0.47-4.08,1.42-6.14c0.94-2.06,2.31-3.91,4.09-5.55c1.78-1.64,3.96-2.98,6.54-4.02
		c2.58-1.04,5.5-1.56,8.77-1.56c2.32,0,4.38,0.33,6.16,1C210.2,90.86,211.92,91.81,213.59,93.05z M210.43,110.62
		c0.22-0.69,0.45-1.7,0.71-3.01c0.25-1.31,0.56-2.79,0.93-4.43c-0.94-1.64-2.09-2.82-3.43-3.54c-1.35-0.72-2.71-1.08-4.09-1.08
		c-1.82,0-3.43,0.56-4.85,1.67c-1.42,1.12-2.12,2.54-2.12,4.28c0,0.65,0.13,1.4,0.38,2.27c0.25,0.87,0.78,1.7,1.58,2.49
		c0.8,0.79,1.91,1.46,3.32,2.01c1.42,0.55,3.32,0.82,5.72,0.82c0.22,0,0.45-0.01,0.71-0.04c0.25-0.02,0.49-0.04,0.71-0.04
		L210.43,110.62z"/>
	<path class="st1" d="M260.56,118.73c-1.82,0.6-3.61,1.07-5.39,1.41c-1.78,0.35-3.51,0.52-5.18,0.52c-1.96,0-3.74-0.25-5.34-0.74
		c-1.6-0.5-2.96-1.18-4.09-2.05c-1.13-0.87-2-1.9-2.62-3.09c-0.62-1.19-0.93-2.48-0.93-3.87c0-1.09,0.13-2.22,0.38-3.39
		c0.25-1.17,0.51-2.31,0.76-3.42c0.25-1.12,0.51-2.18,0.76-3.2c0.25-1.02,0.38-1.95,0.38-2.79c0-0.89-0.24-1.7-0.71-2.42
		c-0.47-0.72-1.18-1.08-2.12-1.08h-0.22c0.14-0.99,0.6-1.85,1.36-2.57c0.76-0.72,1.72-1.33,2.89-1.82c1.16-0.5,2.45-0.86,3.87-1.08
		c1.42-0.22,2.85-0.33,4.3-0.33c3.56,0,6.36,0.57,8.39,1.71c2.03,1.14,3.05,2.73,3.05,4.76c0,0.99-0.16,2.02-0.49,3.09
		c-0.33,1.07-0.69,2.23-1.09,3.5c-0.4,1.27-0.76,2.64-1.09,4.13c-0.33,1.49-0.49,3.13-0.49,4.91c0,0.84,0.05,1.66,0.16,2.46
		c0.11,0.79,0.31,1.54,0.6,2.23c0.29,0.74,0.8,1.41,1.53,2.01C259.97,118.21,260.41,118.58,260.56,118.73z M251.29,73.4
		c2.62,0,4.78,0.61,6.48,1.82c1.71,1.22,2.56,2.69,2.56,4.43c0,1.04-0.31,2.02-0.93,2.94c-0.62,0.92-1.45,1.74-2.51,2.46
		c-1.05,0.72-2.27,1.28-3.65,1.67c-1.38,0.4-2.8,0.6-4.25,0.6c-2.62,0-4.79-0.61-6.54-1.82c-1.74-1.22-2.62-2.72-2.62-4.5
		c0-1.04,0.33-2.02,0.98-2.94c0.65-0.92,1.51-1.72,2.56-2.42c1.05-0.69,2.27-1.24,3.65-1.64C248.42,73.6,249.84,73.4,251.29,73.4z"
		/>
	<path class="st2" d="M305.99,131.16c-0.29,2.18-1.27,4.07-2.94,5.66c-1.67,1.59-3.69,2.89-6.05,3.91
		c-2.36,1.02-4.92,1.76-7.68,2.23c-2.76,0.47-5.38,0.71-7.85,0.71c-3.85,0-7.12-0.35-9.81-1.05c-2.69-0.7-4.9-1.63-6.65-2.78
		c-1.74-1.15-3.02-2.43-3.81-3.83c-0.8-1.4-1.2-2.82-1.2-4.26c0-1.19,0.27-2.33,0.82-3.42c0.54-1.09,1.31-2.07,2.29-2.94
		c0.98-0.87,2.2-1.55,3.65-2.05c1.45-0.5,3.05-0.74,4.79-0.74c1.67,0,3.09,0.15,4.25,0.45c1.16,0.3,2.11,0.69,2.83,1.19
		c0.73,0.5,1.25,1.05,1.58,1.67c0.33,0.62,0.49,1.25,0.49,1.9c0,1.19-0.47,2.27-1.42,3.24c-0.94,0.97-2.18,1.5-3.7,1.6
		c0.29,0.69,0.87,1.22,1.74,1.56c0.87,0.35,1.85,0.52,2.94,0.52c1.6,0,3.16-0.4,4.69-1.19c1.53-0.79,2.43-2.05,2.72-3.78l1.96-13.2
		c-3.27,1.79-6.72,2.68-10.35,2.68c-2.76,0-5.16-0.36-7.19-1.08c-2.03-0.72-3.72-1.67-5.07-2.87c-1.35-1.19-2.34-2.57-3-4.13
		c-0.65-1.56-0.98-3.19-0.98-4.88c0-2.78,0.69-5.31,2.07-7.59c1.38-2.28,3.2-4.24,5.45-5.88c2.25-1.64,4.83-2.9,7.74-3.8
		c2.9-0.89,5.85-1.34,8.83-1.34c3.12,0,6.17,0.52,9.15,1.56c1.16-0.69,2.45-1.2,3.87-1.53c1.42-0.32,2.85-0.48,4.3-0.48
		c2.76,0,5.21,0.48,7.36,1.45c2.14,0.97,3.29,2.27,3.43,3.91c-1.16,0.7-1.91,1.45-2.23,2.27c-0.33,0.82-0.67,1.72-1.04,2.72
		c-0.29,0.89-0.62,2.21-0.98,3.95c-0.36,1.74-0.75,3.68-1.14,5.84c-0.4,2.16-0.8,4.43-1.2,6.81c-0.4,2.38-0.78,4.66-1.14,6.85
		c-0.36,2.18-0.67,4.17-0.93,5.95C306.34,128.78,306.14,130.17,305.99,131.16z M292.16,96.33c-1.67,0.1-3.29,0.38-4.85,0.86
		c-1.56,0.47-2.96,1.1-4.2,1.9c-1.24,0.79-2.22,1.74-2.94,2.83c-0.73,1.09-1.09,2.28-1.09,3.57c0,1.34,0.51,2.41,1.53,3.2
		c1.02,0.79,2.29,1.19,3.81,1.19c2.11,0,4.29-0.79,6.54-2.38c0.22-1.89,0.44-3.75,0.65-5.58
		C291.83,100.07,292.01,98.21,292.16,96.33z"/>
	<path class="st2" d="M340.97,118.73c-1.82,0.6-3.61,1.07-5.39,1.41c-1.78,0.35-3.51,0.52-5.18,0.52c-2.03,0-3.85-0.26-5.45-0.78
		c-1.6-0.52-2.96-1.23-4.09-2.12c-1.13-0.89-1.98-1.95-2.56-3.16c-0.58-1.22-0.87-2.52-0.87-3.91c0-1.09,0.11-2.21,0.33-3.35
		c0.22-1.14,0.44-2.26,0.65-3.35c0.22-1.09,0.44-2.15,0.65-3.16c0.22-1.02,0.33-1.95,0.33-2.79c0-0.99-0.2-1.86-0.6-2.61
		c-0.4-0.74-1.11-1.12-2.12-1.12h-0.33c0.14-0.99,0.6-1.85,1.36-2.57c0.76-0.72,1.72-1.33,2.89-1.82c1.16-0.5,2.45-0.86,3.87-1.08
		c1.42-0.22,2.85-0.33,4.3-0.33c2.03,0,3.92,0.21,5.67,0.63c1.74,0.42,3.09,1.05,4.03,1.9l0.65,0.67c2.03-1.09,4.03-2,5.99-2.72
		c1.96-0.72,4.43-1.08,7.41-1.08c1.96,0,3.67,0.22,5.12,0.67c1.45,0.45,2.67,1.05,3.65,1.82c0.98,0.77,1.71,1.66,2.18,2.68
		c0.47,1.02,0.71,2.07,0.71,3.16c0,1.29-0.35,2.62-1.04,3.98c-0.69,1.37-1.73,2.62-3.11,3.76c-1.38,1.14-3.09,2.08-5.12,2.83
		c-2.03,0.74-4.36,1.12-6.97,1.12c-2.69,0-4.56-0.53-5.61-1.6c-1.05-1.07-1.58-2.2-1.58-3.39c0-1.19,0.34-2.08,1.04-2.68
		c0.69-0.6,1.54-0.89,2.56-0.89c0.36,0,0.71,0.01,1.04,0.04c0.33,0.03,0.64,0.04,0.93,0.04c0.51,0,0.89-0.09,1.14-0.26
		c0.25-0.17,0.38-0.53,0.38-1.08c0-0.64-0.22-1.09-0.65-1.34c-0.44-0.25-0.91-0.37-1.42-0.37c-0.8,0-1.73,0.2-2.78,0.6
		c-1.05,0.4-2.05,0.84-3,1.34c-0.51,1.74-1.09,3.62-1.74,5.66c-0.65,2.04-0.98,4.39-0.98,7.07c0,0.84,0.05,1.64,0.16,2.38
		s0.31,1.46,0.6,2.16c0.29,0.74,0.82,1.41,1.58,2.01C340.37,118.21,340.83,118.58,340.97,118.73z"/>
	<path class="st2" d="M409.62,119.1c-1.02,0.55-2.27,0.97-3.76,1.27c-1.49,0.3-3.07,0.45-4.74,0.45c-1.96,0-3.89-0.22-5.78-0.67
		c-1.89-0.45-3.34-1.17-4.36-2.16c-1.24,0.84-2.83,1.53-4.79,2.05c-1.96,0.52-4.36,0.78-7.19,0.78c-5.23,0-8.94-0.72-11.11-2.16
		c-2.18-1.44-3.27-3.47-3.27-6.1c0-1.98,0.58-3.8,1.74-5.43c1.16-1.64,2.69-3.05,4.58-4.24c1.89-1.19,4.07-2.11,6.54-2.75
		c2.47-0.64,4.98-0.97,7.52-0.97c1.82,0,3.67,0.2,5.56,0.6c-0.58-0.79-1.62-1.35-3.11-1.67c-1.49-0.32-3.07-0.48-4.74-0.48
		c-1.96,0-3.78,0.16-5.45,0.48c-1.67,0.32-2.58,0.71-2.72,1.15c-0.8-0.25-1.54-0.82-2.23-1.71c-0.69-0.89-1.04-1.91-1.04-3.05
		c0-2.03,1.4-3.68,4.2-4.95c2.8-1.27,7.46-1.9,14-1.9c2.83,0,5.57,0.12,8.23,0.37c2.65,0.25,4.99,0.72,7.03,1.41
		c2.03,0.7,3.65,1.67,4.85,2.94c1.2,1.27,1.8,2.92,1.8,4.95c0,1.44-0.15,3.08-0.44,4.91c-0.29,1.84-0.62,3.68-0.98,5.55
		c-0.36,1.86-0.69,3.62-0.98,5.28c-0.29,1.66-0.44,3.01-0.44,4.06C408.53,118.43,408.89,119.1,409.62,119.1z M385.32,66.25
		c0.58-0.94,1.6-1.41,3.05-1.41c0.94,0,1.92,0.19,2.94,0.56c1.02,0.37,1.96,0.86,2.83,1.45c0.87,0.6,1.58,1.27,2.12,2.01
		c0.54,0.74,0.82,1.49,0.82,2.23c0,0.35-0.35,0.96-1.04,1.82c-0.69,0.87-1.44,1.84-2.23,2.9c-0.8,1.07-1.54,2.13-2.23,3.2
		c-0.69,1.07-1.04,1.95-1.04,2.64c0,0.45,0.22,0.7,0.65,0.74c-1.24,0.65-2.54,0.97-3.92,0.97c-1.38,0-2.58-0.19-3.6-0.56
		c-1.02-0.37-1.87-0.84-2.56-1.41c-0.69-0.57-1.2-1.18-1.53-1.82c-0.33-0.64-0.49-1.24-0.49-1.79c0-1.49,0.6-3.16,1.8-5.02
		C382.11,70.91,383.58,68.74,385.32,66.25z M389.79,114.12c0-0.4-0.02-0.78-0.05-1.15c-0.04-0.37-0.05-0.73-0.05-1.08
		c0-0.99,0.07-2.01,0.22-3.05c0.14-1.04,0.4-2.46,0.76-4.24c-0.36-0.1-0.75-0.17-1.14-0.22c-0.4-0.05-0.78-0.07-1.14-0.07
		c-2.11,0-3.92,0.57-5.45,1.71c-1.53,1.14-2.29,2.43-2.29,3.87c0,1.39,0.73,2.47,2.18,3.24c1.45,0.77,3.16,1.15,5.12,1.15
		c0.36,0,0.67-0.01,0.93-0.04C389.12,114.2,389.43,114.17,389.79,114.12z"/>
	<path class="st2" d="M460.94,101.86c-1.45,1.34-3.03,2.27-4.74,2.82c-1.71,0.54-3.36,0.82-4.96,0.82c-2.11,0-3.91-0.4-5.39-1.19
		c-1.49-0.79-2.23-1.71-2.23-2.74c0-0.49,0.13-0.95,0.38-1.37c0.25-0.42,0.54-0.82,0.87-1.19c0.33-0.37,0.64-0.69,0.93-0.97
		c0.29-0.27,0.44-0.51,0.44-0.7c0-0.25-0.29-0.43-0.87-0.56c-0.58-0.12-0.98-0.19-1.2-0.19c-0.8,0-1.4,0.25-1.8,0.74
		c-0.4,0.5-0.75,1.09-1.04,1.78l-1.31,8.98c2.54-0.05,4.65-0.16,6.32-0.33c1.67-0.17,2.69-0.46,3.05-0.86
		c1.02,0.25,1.81,0.81,2.4,1.68c0.58,0.87,0.87,1.81,0.87,2.81c0,1.2-0.51,2.35-1.53,3.45c-1.02,1.1-2.65,1.75-4.9,1.95l-7.41-0.3
		c-0.44,2.83-0.82,5.63-1.14,8.41c-0.33,2.78-0.64,5.58-0.93,8.41c-0.15,1.54-0.6,2.84-1.36,3.91c-0.76,1.07-1.71,1.94-2.83,2.61
		c-1.13,0.67-2.4,1.17-3.81,1.49c-1.42,0.32-2.85,0.48-4.3,0.48c-2.69,0-5.12-0.49-7.3-1.45c-2.18-0.97-3.34-2.28-3.49-3.92
		c1.09-0.65,1.92-1.5,2.51-2.57c0.58-1.07,1.07-2.43,1.47-4.07c0.4-1.64,0.73-3.62,0.98-5.93c0.25-2.32,0.6-5.09,1.04-8.32
		l-3.16-0.07c-1.67-0.05-2.74-0.41-3.21-1.08c-0.47-0.67-0.71-1.55-0.71-2.64c0.07-0.94,0.2-1.67,0.38-2.2
		c0.18-0.52,0.45-0.9,0.82-1.15c0.36-0.25,0.8-0.4,1.31-0.45c0.51-0.05,1.16-0.07,1.96-0.07h3.49c0.29-2.17,0.51-4.14,0.65-5.9
		c0.14-1.76,0.25-3.13,0.33-4.12c0.29-3.61,2.47-6.48,6.54-8.6c4.07-2.13,10.03-3.19,17.87-3.19c2.47,0,4.81,0.27,7.03,0.82
		c2.22,0.54,4.14,1.27,5.78,2.19c1.63,0.92,2.92,1.98,3.87,3.19c0.94,1.21,1.42,2.51,1.42,3.9C464,98.07,462.98,99.98,460.94,101.86
		z"/>
	<path class="st2" d="M489.38,118.73c-1.82,0.6-3.61,1.07-5.39,1.41c-1.78,0.35-3.51,0.52-5.18,0.52c-1.96,0-3.74-0.25-5.34-0.74
		c-1.6-0.5-2.96-1.18-4.09-2.05c-1.13-0.87-2-1.9-2.62-3.09c-0.62-1.19-0.93-2.48-0.93-3.87c0-1.09,0.13-2.22,0.38-3.39
		c0.25-1.17,0.51-2.31,0.76-3.42c0.25-1.12,0.51-2.18,0.76-3.2c0.25-1.02,0.38-1.95,0.38-2.79c0-0.89-0.24-1.7-0.71-2.42
		c-0.47-0.72-1.18-1.08-2.12-1.08h-0.22c0.14-0.99,0.6-1.85,1.36-2.57c0.76-0.72,1.72-1.33,2.89-1.82c1.16-0.5,2.45-0.86,3.87-1.08
		c1.42-0.22,2.85-0.33,4.3-0.33c3.56,0,6.36,0.57,8.39,1.71c2.03,1.14,3.05,2.73,3.05,4.76c0,0.99-0.16,2.02-0.49,3.09
		c-0.33,1.07-0.69,2.23-1.09,3.5c-0.4,1.27-0.76,2.64-1.09,4.13c-0.33,1.49-0.49,3.13-0.49,4.91c0,0.84,0.05,1.66,0.16,2.46
		c0.11,0.79,0.31,1.54,0.6,2.23c0.29,0.74,0.8,1.41,1.53,2.01C488.8,118.21,489.24,118.58,489.38,118.73z M480.12,73.4
		c2.62,0,4.78,0.61,6.48,1.82c1.71,1.22,2.56,2.69,2.56,4.43c0,1.04-0.31,2.02-0.93,2.94c-0.62,0.92-1.45,1.74-2.51,2.46
		c-1.05,0.72-2.27,1.28-3.65,1.67c-1.38,0.4-2.8,0.6-4.25,0.6c-2.62,0-4.79-0.61-6.54-1.82c-1.74-1.22-2.62-2.72-2.62-4.5
		c0-1.04,0.33-2.02,0.98-2.94c0.65-0.92,1.51-1.72,2.56-2.42c1.05-0.69,2.27-1.24,3.65-1.64C477.25,73.6,478.67,73.4,480.12,73.4z"
		/>
	<path class="st2" d="M509.87,107.19c0.8,1.19,2.09,2.07,3.87,2.64c1.78,0.57,3.72,0.86,5.83,0.86c1.67,0,3.36-0.17,5.07-0.52
		c1.71-0.35,3.29-0.87,4.74-1.56c1.09,0.45,1.63,1.24,1.63,2.38c0,0.99-0.49,2.06-1.47,3.2c-0.98,1.14-2.33,2.21-4.03,3.2
		c-1.71,0.99-3.7,1.82-5.99,2.49c-2.29,0.67-4.74,1-7.36,1c-2.83,0-5.54-0.33-8.12-1c-2.58-0.67-4.87-1.64-6.86-2.9
		c-2-1.27-3.6-2.79-4.79-4.58c-1.2-1.79-1.8-3.77-1.8-5.95c0-2.53,0.76-4.9,2.29-7.11c1.53-2.21,3.54-4.16,6.05-5.84
		c2.51-1.69,5.36-3.01,8.55-3.98c3.2-0.97,6.5-1.45,9.92-1.45c1.53,0,3.12,0.11,4.79,0.33c1.67,0.22,3.21,0.62,4.63,1.19
		c1.42,0.57,2.6,1.32,3.54,2.23c0.94,0.92,1.42,2.07,1.42,3.46c0,0.74-0.22,1.44-0.65,2.08c-0.44,0.65-1.02,1.19-1.74,1.64
		c-0.73,0.45-1.51,0.81-2.34,1.08c-0.84,0.27-1.69,0.41-2.56,0.41c-0.94,0-1.78-0.16-2.51-0.48c-0.73-0.32-1.24-0.76-1.53-1.3
		c0.65-0.2,0.98-0.55,0.98-1.04c0-0.45-0.29-0.88-0.87-1.3c-0.58-0.42-1.38-0.63-2.4-0.63c-0.94,0-1.94,0.22-3,0.67
		c-1.05,0.45-2.03,1.08-2.94,1.9c-0.91,0.82-1.65,1.77-2.23,2.87c-0.58,1.09-0.87,2.26-0.87,3.5
		C509.11,105.66,509.36,106.5,509.87,107.19z"/>
	<path class="st2" d="M577.32,119.1c-1.02,0.55-2.27,0.97-3.76,1.27c-1.49,0.3-3.07,0.45-4.74,0.45c-1.96,0-3.89-0.22-5.78-0.67
		c-1.89-0.45-3.34-1.17-4.36-2.16c-1.24,0.84-2.83,1.53-4.79,2.05c-1.96,0.52-4.36,0.78-7.19,0.78c-5.23,0-8.94-0.72-11.11-2.16
		c-2.18-1.44-3.27-3.47-3.27-6.1c0-1.98,0.58-3.8,1.74-5.43c1.16-1.64,2.69-3.05,4.58-4.24c1.89-1.19,4.07-2.11,6.54-2.75
		c2.47-0.64,4.98-0.97,7.52-0.97c1.82,0,3.67,0.2,5.56,0.6c-0.58-0.79-1.62-1.35-3.11-1.67c-1.49-0.32-3.07-0.48-4.74-0.48
		c-1.96,0-3.78,0.16-5.45,0.48c-1.67,0.32-2.58,0.71-2.72,1.15c-0.8-0.25-1.54-0.82-2.23-1.71c-0.69-0.89-1.04-1.91-1.04-3.05
		c0-2.03,1.4-3.68,4.2-4.95c2.8-1.27,7.46-1.9,14-1.9c2.83,0,5.57,0.12,8.23,0.37c2.65,0.25,4.99,0.72,7.03,1.41
		c2.03,0.7,3.65,1.67,4.85,2.94c1.2,1.27,1.8,2.92,1.8,4.95c0,1.44-0.15,3.08-0.44,4.91c-0.29,1.84-0.62,3.68-0.98,5.55
		c-0.36,1.86-0.69,3.62-0.98,5.28c-0.29,1.66-0.44,3.01-0.44,4.06C576.23,118.43,576.59,119.1,577.32,119.1z M557.49,114.12
		c0-0.4-0.02-0.78-0.05-1.15c-0.04-0.37-0.05-0.73-0.05-1.08c0-0.99,0.07-2.01,0.22-3.05c0.14-1.04,0.4-2.46,0.76-4.24
		c-0.36-0.1-0.75-0.17-1.14-0.22c-0.4-0.05-0.78-0.07-1.14-0.07c-2.11,0-3.92,0.57-5.45,1.71c-1.53,1.14-2.29,2.43-2.29,3.87
		c0,1.39,0.73,2.47,2.18,3.24c1.45,0.77,3.16,1.15,5.12,1.15c0.36,0,0.67-0.01,0.93-0.04C556.81,114.2,557.12,114.17,557.49,114.12z
		"/>
	<g>
		<g>
			<path class="st0" d="M327.85,140.87c0,0.7,0.98,1.04,2.25,1.04v0.81c-0.65,0.18-1.47,0.25-2.25,0.25c-1.43,0-3.19-0.43-3.76-1.7
				c-0.94,1.09-3.03,1.7-5.03,1.7c-5.93,0-8.96-1.67-8.96-5.05c0-3.35,2.94-6.02,8.55-6.02c3.11,0,5.4,1.04,6.3,2.38l-0.94-2.38
				v-5.02h-2.45v-0.81c0.94-0.09,2.74-0.25,4.09-0.25c2.25,0,2.21,1.06,2.21,1.06V140.87z M324.01,138.31v-1.38
				c0-2.92-2.94-3.96-4.79-3.96c-3.52,0-4.87,2.29-4.87,5c0,2.72,1.84,4.14,5.28,4.14C321.68,142.11,324.01,140.89,324.01,138.31z"
				/>
			<path class="st0" d="M336.24,138.47c0.57,2.06,2.66,3.44,6.38,3.44c2.17,0,4.17-0.43,5.85-1.02l0.94,0.75
				c-1.76,0.88-4.38,1.34-7.03,1.34c-7.24,0-10.63-2.19-10.63-5.54c0-3.48,4.09-5.52,9.82-5.52c4.74,0,7.93,0.86,7.93,3.19
				C349.49,137.86,343.15,138.47,336.24,138.47z M336.07,137.68c5.36-0.02,9.57-1.18,9.57-2.85c0-1.43-1.43-2.08-4.25-2.08
				c-3.52,0-5.32,1.92-5.32,4.5V137.68z"/>
			<path class="st0" d="M355.7,134.15c0,1.2,2.45,1.76,4.38,2.22c2.9,0.68,6.01,1.45,6.01,3.44c0,1.92-2.7,3.17-7.44,3.17
				c-4.13,0-6.3-0.59-6.3-1.88c0-0.59,0.9-1.02,1.96-1.02l0.98,1.54c0.78,0.27,2.17,0.5,3.03,0.5c2.62,0,4.5-0.63,4.5-1.72
				c0-1.11-2.86-1.65-5.15-2.22c-2.74-0.7-5.19-1.47-5.19-3.26c0-1.83,2.9-3.01,7.36-3.01c3.03,0,5.97,0.57,5.97,1.83
				c0,0.61-0.94,1.13-2.09,1.13l-1.27-1.86c-0.74-0.16-1.68-0.27-2.82-0.27C357.22,132.74,355.7,133.38,355.7,134.15z"/>
			<path class="st0" d="M386.91,140.87c0,0.7,0.98,1.04,2.25,1.04v0.81c-0.65,0.18-1.47,0.25-2.25,0.25c-1.43,0-3.19-0.43-3.76-1.7
				c-0.94,1.09-3.03,1.7-5.03,1.7c-5.93,0-8.96-1.67-8.96-5.05c0-3.35,2.94-6.02,8.55-6.02c3.11,0,5.4,1.04,6.3,2.38l-0.94-2.38
				v-5.02h-2.45v-0.81c0.94-0.09,2.74-0.25,4.09-0.25c2.25,0,2.21,1.06,2.21,1.06V140.87z M383.06,138.31v-1.38
				c0-2.92-2.94-3.96-4.79-3.96c-3.52,0-4.87,2.29-4.87,5c0,2.72,1.84,4.14,5.28,4.14C380.73,142.11,383.06,140.89,383.06,138.31z"
				/>
			<path class="st0" d="M395.29,138.47c0.57,2.06,2.66,3.44,6.38,3.44c2.17,0,4.17-0.43,5.85-1.02l0.94,0.75
				c-1.76,0.88-4.38,1.34-7.03,1.34c-7.24,0-10.63-2.19-10.63-5.54c0-3.48,4.09-5.52,9.82-5.52c4.74,0,7.93,0.86,7.93,3.19
				C408.54,137.86,402.2,138.47,395.29,138.47z M395.13,137.68c5.36-0.02,9.57-1.18,9.57-2.85c0-1.43-1.43-2.08-4.25-2.08
				c-3.52,0-5.32,1.92-5.32,4.5V137.68z"/>
		</g>
	</g>
	<g>
		<g>
			<path class="st0" d="M445.19,141.66l7.59-0.42v-10.16h-7.45l-0.52-0.8l11.38-0.78h3.2v11.74l7.32,0.42l-0.52,0.78h-20.53
				L445.19,141.66z"/>
			<path class="st0" d="M483.18,137.7c-5.89,0-11.57-1.61-11.57-4c0-2.29,5.49-4.42,14.06-4.42c8.44,0,14.26,1.67,14.26,4.52
				c0,3.64-10.66,7.66-20.73,8.87l-1.37-0.74c7.98-1.21,15.56-4.48,15.56-8.1c0-2.17-2.35-3.54-7.72-3.54
				c-5.36,0-7.45,1.79-7.45,3.48c0,1.91,2.75,2.92,6.08,2.94c1.5,0,2.94-0.08,4.71-0.32l0.85,0.66
				C488.02,137.4,485.08,137.7,483.18,137.7z"/>
			<path class="st0" d="M533.79,139.29c0,2.19-6.47,3.38-13.41,3.38s-13.47-1.11-13.47-3.28c0-1.91,5.23-2.84,9.29-3.6
				c-4.84-0.82-8.04-2.07-8.04-3.54c0-1.63,4.38-2.98,12.23-2.98c7.98,0,12.16,1.35,12.16,2.8c0,1.47-4.77,2.43-8.3,3.12
				C528.56,135.99,533.79,137.05,533.79,139.29z M513.13,139.39c0,1.49,2.88,2.27,7.26,2.27c4.32,0,7.26-0.88,7.26-2.25
				c0-1.39-4.71-2.45-8.96-3.18C515.22,136.89,513.13,137.8,513.13,139.39z M521.82,134.76c2.68-0.52,4.58-1.39,4.58-2.57
				c0-1.31-2.62-1.91-6.02-1.91c-3.14,0-6.02,0.5-6.02,1.91c0,1.13,3.27,1.87,6.6,2.43L521.82,134.76z"/>
			<path class="st0" d="M552.49,137.7c-5.89,0-11.57-1.61-11.57-4c0-2.29,5.49-4.42,14.06-4.42c8.44,0,14.26,1.67,14.26,4.52
				c0,3.64-10.66,7.66-20.73,8.87l-1.37-0.74c7.98-1.21,15.56-4.48,15.56-8.1c0-2.17-2.35-3.54-7.72-3.54
				c-5.36,0-7.45,1.79-7.45,3.48c0,1.91,2.75,2.92,6.08,2.94c1.5,0,2.94-0.08,4.71-0.32l0.85,0.66
				C557.33,137.4,554.39,137.7,552.49,137.7z"/>
		</g>
	</g>
	<g>
		<g>
			<path class="st0" d="M38.01,134.87c0,1.03,1.73,1.51,3.09,1.9c2.05,0.58,4.25,1.24,4.25,2.95c0,1.65-1.91,2.72-5.26,2.72
				c-2.92,0-4.45-0.5-4.45-1.61c0-0.5,0.64-0.87,1.39-0.87l0.69,1.32c0.55,0.23,1.53,0.43,2.14,0.43c1.85,0,3.18-0.54,3.18-1.47
				c0-0.95-2.02-1.42-3.64-1.9c-1.94-0.6-3.67-1.26-3.67-2.79c0-1.57,2.05-2.58,5.2-2.58c2.14,0,4.22,0.48,4.22,1.57
				c0,0.52-0.66,0.97-1.47,0.97l-0.9-1.59c-0.52-0.14-1.18-0.23-1.99-0.23C39.08,133.66,38.01,134.21,38.01,134.87z"/>
			<path class="st0" d="M61.24,137.68c0,2.99-2.2,4.75-6.79,4.75c-4.56,0-6.79-1.84-6.79-4.75c0-2.91,2.51-4.73,6.79-4.73
				C58.72,132.95,61.24,134.69,61.24,137.68z M50.46,137.62c0,2.44,1.53,4.09,3.99,4.09s3.99-1.63,3.99-4.09
				c0-2.48-1.56-3.96-3.99-3.96C52.05,133.66,50.46,135.18,50.46,137.62z"/>
			<path class="st0" d="M63.55,128.64v-0.7c0.66-0.08,1.94-0.21,2.89-0.21c1.59,0,1.56,0.91,1.56,0.91v11.98
				c0,0.6,0.81,0.89,1.7,0.89v0.7c-0.4,0.14-1.16,0.21-1.94,0.21c-1.07,0-2.48-0.41-2.48-1.76v-12.02H63.55z"/>
			<path class="st0" d="M81.75,138.38v-5.22l1.7-0.21l1.01,0.21v7.47c0,0.6,0.81,0.89,1.7,0.89v0.7c-0.46,0.16-1.04,0.21-1.59,0.21
				c-1.01,0-2.31-0.37-2.72-1.45c-0.81,0.91-2.22,1.45-3.7,1.45c-3.15,0-4.94-1.14-4.94-3.47v-5.1h-1.5v-0.7
				c0.66-0.06,1.7-0.21,2.66-0.21c1.59,0,1.56,0.91,1.56,0.91v5.49c0,1.47,1.1,2.35,2.83,2.35
				C80.07,141.69,81.75,140.59,81.75,138.38z"/>
			<path class="st0" d="M97.03,133.9c-0.52-0.14-0.95-0.23-1.76-0.23c-2.89,0-4.48,1.36-4.48,3.65c0,2.33,0.9,4.21,4.51,4.21
				c1.5,0,2.63-0.37,3.81-0.87l0.66,0.64c-1.24,0.76-2.77,1.14-4.65,1.14h-0.49v0.68c1.16,0,2.51,0.43,2.51,1.44
				c0,1.69-2.66,1.96-4.28,1.96v-0.56c1.62,0,2.54-0.52,2.54-1.26c0-0.56-0.72-0.74-1.27-0.74h-0.55v-1.59
				c-4.04-0.33-5.84-2.08-5.84-4.65c0-3.01,2.92-4.75,7.42-4.75c2.14,0,4.22,0.48,4.22,1.57c0,0.52-0.66,0.97-1.47,0.97L97.03,133.9
				z"/>
			<path class="st0" d="M115.14,137.68c0,2.99-2.2,4.75-6.79,4.75c-4.56,0-6.79-1.84-6.79-4.75c0-2.91,2.51-4.73,6.79-4.73
				C112.63,132.95,115.14,134.69,115.14,137.68z M105.21,130.89h-1.21c0.38-1.12,1.36-2.19,3.18-2.19c1.82,0,2.4,0.87,3.55,0.87
				c0.95,0,1.53-0.37,1.76-0.87h1.1c-0.23,1.14-0.9,2.19-2.89,2.19c-1.7,0-2.28-0.87-3.52-0.87
				C106.22,130.02,105.55,130.31,105.21,130.89z M104.37,137.62c0,2.44,1.53,4.09,3.99,4.09c2.46,0,3.99-1.63,3.99-4.09
				c0-2.48-1.56-3.96-3.99-3.96C105.96,133.66,104.37,135.18,104.37,137.62z"/>
			<path class="st0" d="M120.49,138.57c0.4,1.76,1.88,2.95,4.51,2.95c1.53,0,2.95-0.37,4.13-0.87l0.66,0.64
				c-1.24,0.76-3.09,1.14-4.97,1.14c-5.11,0-7.51-1.88-7.51-4.75c0-2.99,2.89-4.73,6.93-4.73c3.35,0,5.6,0.74,5.6,2.73
				C129.85,138.05,125.37,138.57,120.49,138.57z M120.37,137.89c3.78-0.02,6.76-1.01,6.76-2.44c0-1.22-1.01-1.78-3-1.78
				c-2.48,0-3.76,1.65-3.76,3.86V137.89z"/>
			<path class="st0" d="M134.24,134.87c0,1.03,1.73,1.51,3.09,1.9c2.05,0.58,4.25,1.24,4.25,2.95c0,1.65-1.91,2.72-5.26,2.72
				c-2.92,0-4.45-0.5-4.45-1.61c0-0.5,0.64-0.87,1.39-0.87l0.69,1.32c0.55,0.23,1.53,0.43,2.14,0.43c1.85,0,3.18-0.54,3.18-1.47
				c0-0.95-2.02-1.42-3.64-1.9c-1.94-0.6-3.67-1.26-3.67-2.79c0-1.57,2.05-2.58,5.2-2.58c2.14,0,4.22,0.48,4.22,1.57
				c0,0.52-0.66,0.97-1.47,0.97l-0.9-1.59c-0.52-0.14-1.18-0.23-1.99-0.23C135.31,133.66,134.24,134.21,134.24,134.87z"/>
			<path class="st0" d="M163.51,143.24c0,2.93-3.12,3.82-6.56,3.82c-2.74,0-5.17-0.83-5.17-2.44c0-0.99,1.44-1.76,2.66-2.06
				l0.58,0.58c-0.87,0.31-1.36,0.87-1.36,1.36c0,0.8,1.16,1.67,3.29,1.67c2.02,0,3.84-0.52,3.84-2.71V142l0.58-2.21
				c-0.66,1.38-2.37,2.42-4.77,2.42c-3.47,0-5.63-1.18-5.63-4.01c0-3.24,2.63-5.26,7.02-5.26c0.87,0,2.08,0.12,2.8,0.31l1.7-0.31
				l1.01,0.21V143.24z M157.21,141.3c1.44,0,3.58-1.11,3.58-3.84v-3.43c-0.81-0.17-1.73-0.37-2.74-0.37c-2.43,0-4.07,1.51-4.07,4.44
				C153.97,140.61,155.47,141.3,157.21,141.3z"/>
			<path class="st0" d="M166.39,133.86v-0.7c0.66-0.08,1.82-0.21,2.77-0.21c1.59,0,1.56,1.18,1.56,1.18v1.07
				c0.75-1.4,2.6-2.25,4.1-2.25c1.5,0,2.05,0.54,2.05,1.12c0,0.58-0.72,1.03-1.65,1.03l-0.81-1.24c-1.39,0-3.7,1.32-3.7,4.05v4.31
				h-2.72v-8.36H166.39z"/>
			<path class="st0" d="M178.07,138.16c0-3.7,2.98-5.22,6.62-5.22c0.87,0,1.79,0.06,2.51,0.31l1.7-0.31l1.01,0.21v7.47
				c0,0.6,0.69,0.89,1.59,0.89v0.7c-0.46,0.16-1.04,0.21-1.59,0.21c-1.01,0-2.14-0.37-2.54-1.45c-0.66,0.93-2.14,1.45-3.55,1.45
				C180.98,142.43,178.07,141.28,178.07,138.16z M187.2,134.11c-0.92-0.35-1.5-0.45-2.37-0.45c-1.85,0-3.96,1.05-3.96,4.4
				c0,2.7,1.65,3.45,3.24,3.45c1.44,0,3.09-0.87,3.09-3.08V134.11z M185.95,127.96l2.57,0.19l-3.96,3.1l-0.58-0.19L185.95,127.96z"
				/>
			<path class="st0" d="M194.65,133.86h-1.96l-0.2-0.7l2.17-0.47v-0.99c0-2.19,2.02-3.98,5.55-3.98c2.14,0,3.47,0.39,3.47,1.47
				c0,0.6-0.75,1.03-1.56,1.03l-0.81-1.59c0,0-0.43-0.19-0.98-0.19c-1.68,0-2.95,0.78-2.95,2.87v1.84h3.5l-0.2,0.7h-3.29v8.36
				c0,2.85-2.92,4.85-6.15,4.85c-0.75,0-1.39-0.37-1.39-0.87c0-0.5,0.64-0.87,1.39-0.87l0.69,0.89c2.43-0.7,2.74-2.58,2.74-4.52
				V133.86z"/>
			<path class="st0" d="M208.26,142.22h-2.72v-8.36h-1.73v-0.7c0.66-0.08,1.94-0.21,2.89-0.21c1.59,0,1.56,0.91,1.56,0.91V142.22z
				 M208.37,129.75c0,0.58-0.72,1.05-1.56,1.05c-0.87,0-1.56-0.47-1.56-1.05c0-0.58,0.69-1.05,1.56-1.05
				C207.65,128.7,208.37,129.16,208.37,129.75z"/>
			<path class="st0" d="M220.85,133.9c-0.52-0.14-0.95-0.23-1.76-0.23c-2.89,0-4.48,1.36-4.48,3.65c0,2.33,0.9,4.21,4.51,4.21
				c1.5,0,2.63-0.37,3.81-0.87l0.66,0.64c-1.24,0.76-2.77,1.14-4.65,1.14c-5.11,0-7.37-1.86-7.37-4.73c0-3.01,2.92-4.75,7.42-4.75
				c2.14,0,4.22,0.48,4.22,1.57c0,0.52-0.66,0.97-1.47,0.97L220.85,133.9z"/>
			<path class="st0" d="M225.13,138.16c0-3.7,2.98-5.22,6.62-5.22c0.87,0,1.79,0.06,2.51,0.31l1.7-0.31l1.01,0.21v7.47
				c0,0.6,0.69,0.89,1.59,0.89v0.7c-0.46,0.16-1.04,0.21-1.59,0.21c-1.01,0-2.14-0.37-2.54-1.45c-0.66,0.93-2.14,1.45-3.55,1.45
				C228.05,142.43,225.13,141.28,225.13,138.16z M234.26,134.11c-0.92-0.35-1.5-0.45-2.37-0.45c-1.85,0-3.96,1.05-3.96,4.4
				c0,2.7,1.65,3.45,3.24,3.45c1.44,0,3.09-0.87,3.09-3.08V134.11z"/>
			<path class="st0" d="M242.49,134.87c0,1.03,1.73,1.51,3.09,1.9c2.05,0.58,4.25,1.24,4.25,2.95c0,1.65-1.91,2.72-5.26,2.72
				c-2.92,0-4.45-0.5-4.45-1.61c0-0.5,0.64-0.87,1.39-0.87l0.69,1.32c0.55,0.23,1.53,0.43,2.14,0.43c1.85,0,3.18-0.54,3.18-1.47
				c0-0.95-2.02-1.42-3.64-1.9c-1.94-0.6-3.67-1.26-3.67-2.79c0-1.57,2.05-2.58,5.2-2.58c2.14,0,4.22,0.48,4.22,1.57
				c0,0.52-0.66,0.97-1.47,0.97l-0.9-1.59c-0.52-0.14-1.18-0.23-1.99-0.23C243.56,133.66,242.49,134.21,242.49,134.87z"/>
		</g>
	</g>
</g>
</svg>
