<svg id="Camada_1" data-name="Camada 1" xmlns="http://www.w3.org/2000/svg" viewBox="0 0 445.43 134.94"><defs><style>.cls-1{fill:#aa2c13;}.cls-2{fill:#f59f41;}.cls-3{fill:#82bcbc;}</style></defs><path class="cls-1" d="M28.29,24.18a16.21,16.21,0,0,0-3.7,2.75,29.7,29.7,0,0,0-3.77,4.31A33.25,33.25,0,0,0,17.89,36a9.63,9.63,0,0,0-1.2,4.19,2.42,2.42,0,0,0,1.08,2.15,14.94,14.94,0,0,1-3.11.36,13.15,13.15,0,0,1-5.51-1.2,15.52,15.52,0,0,1-4.66-3.23,15.3,15.3,0,0,1-3.23-4.72A13.93,13.93,0,0,1,2.33,20.29a28.66,28.66,0,0,1,6-6.58,46.39,46.39,0,0,1,8.37-5.44A70.16,70.16,0,0,1,26.32,4.2,88.48,88.48,0,0,1,36,1.51,47.77,47.77,0,0,1,44.45.37c.79,0,1.57,0,2.33-.06S48.35.25,49.23.25a83.11,83.11,0,0,1,12,.9A35.55,35.55,0,0,1,72.44,4.62a22.32,22.32,0,0,1,8.25,7.18q3.24,4.6,3.23,11.9a19.49,19.49,0,0,1-1.67,8.19,24.81,24.81,0,0,1-3.89,6.16A22.47,22.47,0,0,1,74,42a13.6,13.6,0,0,1-3,1.68q9.09,1,13.58,6.46a20.52,20.52,0,0,1,4.49,13.4,27,27,0,0,1-1.74,9.63,26.18,26.18,0,0,1-5.2,8.43,32.13,32.13,0,0,1-8.73,6.64A45.37,45.37,0,0,1,61,92.49q-4.31.83-10.52,1.85a111.52,111.52,0,0,0-12.5,2.81,55.58,55.58,0,0,0-11.61,4.73c-3.55,2-7.84,7.47-7.84,7.47s-.81-3.23-1-4.9a41.45,41.45,0,0,1-.3-4.91,32.6,32.6,0,0,1,.24-4.06,28.09,28.09,0,0,1,.6-3.35,12.73,12.73,0,0,1,3-5.86,20.18,20.18,0,0,1,5.32-4.07,34.1,34.1,0,0,1,6.82-2.75q3.7-1.08,7.42-1.8c2.47-.48,4.86-.87,7.17-1.19s4.35-.68,6.11-1.08q6.69-1.44,9.63-5a11.13,11.13,0,0,0,2.93-7.11c0-2.4-.62-4.17-1.86-5.33a11,11,0,0,0-4.72-2.51,28.36,28.36,0,0,0-6.46-.9q-3.6-.12-7.18-.48a79.62,79.62,0,0,1-1,10.53,19.71,19.71,0,0,1-2.57,7.24A11.15,11.15,0,0,1,37.93,76a17.3,17.3,0,0,1-7.36,1.37,13.92,13.92,0,0,1-7.36-1.91A6.61,6.61,0,0,1,20,69.4v-.72c1.44,0,2.49-.82,3.17-2.45a23.36,23.36,0,0,0,1.44-6.34q.41-3.89.53-8.8t.3-9.87c.12-3.3.38-6.46.78-9.45A26.77,26.77,0,0,1,28.29,24.18ZM46.36,37.93a19.37,19.37,0,0,0,2.15.12h2.16a20.89,20.89,0,0,0,3.53-.35,11.33,11.33,0,0,0,3.64-1.32,8.13,8.13,0,0,0,2.82-2.75A8.68,8.68,0,0,0,61.79,29a5.8,5.8,0,0,0-2-4.36,10.3,10.3,0,0,0-5.45-2.46l-3.82-.59a52.94,52.94,0,0,0-2.7,8.07A56,56,0,0,0,46.36,37.93Z"/><path class="cls-2" d="M78.69,107.34a24,24,0,0,1-3.89,1.49,13.48,13.48,0,0,1-3.73.55,9,9,0,0,1-3.93-.82,8.85,8.85,0,0,1-3-2.24A9.61,9.61,0,0,1,62.34,103a13.17,13.17,0,0,1-.62-4.12A27,27,0,0,1,62,95.32c.16-1.2.32-2.38.47-3.53s.32-2.27.47-3.34a20.13,20.13,0,0,0,.24-3,8,8,0,0,0-.43-2.75,1.57,1.57,0,0,0-1.53-1.18h-.24a5.53,5.53,0,0,1,1-2.71A7.36,7.36,0,0,1,64,76.94a9.06,9.06,0,0,1,2.79-1.14,13.54,13.54,0,0,1,3.11-.35,12.29,12.29,0,0,1,4.08.66,6.14,6.14,0,0,1,2.91,2l.47.7A30.64,30.64,0,0,1,81.67,76,11.2,11.2,0,0,1,87,74.82a9,9,0,0,1,3.7.7,7.77,7.77,0,0,1,2.63,1.93,7.91,7.91,0,0,1,1.57,2.83,11,11,0,0,1,.51,3.34,13.16,13.16,0,0,1-3,8.17,12,12,0,0,1-3.69,3,10.41,10.41,0,0,1-5,1.18c-1.93,0-3.28-.56-4-1.69a6.27,6.27,0,0,1-1.14-3.57,4.49,4.49,0,0,1,.75-2.83,2.25,2.25,0,0,1,1.84-.94,6.06,6.06,0,0,1,.75,0l.67,0a1.13,1.13,0,0,0,.82-.27,1.67,1.67,0,0,0,.28-1.14,1.74,1.74,0,0,0-.48-1.41,1.51,1.51,0,0,0-1-.4,4.28,4.28,0,0,0-2,.63A16.42,16.42,0,0,0,78,85.82q-.56,2.75-1.26,6A35.06,35.06,0,0,0,76,99.25a24.71,24.71,0,0,0,.12,2.51,13,13,0,0,0,.43,2.28,5.15,5.15,0,0,0,1.14,2.12C78.25,106.79,78.58,107.19,78.69,107.34Z"/><path class="cls-2" d="M114.27,107.34a23.9,23.9,0,0,1-3.88,1.49,13.5,13.5,0,0,1-3.74.55,9.3,9.3,0,0,1-3.85-.78,8.57,8.57,0,0,1-2.94-2.16A9.91,9.91,0,0,1,98,103.18a12.31,12.31,0,0,1-.67-4.09,24.7,24.7,0,0,1,.28-3.57c.18-1.23.37-2.44.55-3.62s.37-2.3.55-3.37a18.13,18.13,0,0,0,.28-3A6.18,6.18,0,0,0,98.44,83a1.64,1.64,0,0,0-1.53-1.14h-.16a5.5,5.5,0,0,1,1-2.71,7.4,7.4,0,0,1,2.08-1.93,9.31,9.31,0,0,1,2.79-1.14,14,14,0,0,1,3.1-.35,9.23,9.23,0,0,1,6.05,1.81,6.13,6.13,0,0,1,2.2,5,16.41,16.41,0,0,1-.35,3.27c-.24,1.12-.5,2.35-.79,3.69s-.55,2.79-.78,4.36a34.43,34.43,0,0,0-.36,5.18c0,.89,0,1.76.12,2.6a13.06,13.06,0,0,0,.43,2.35,5.45,5.45,0,0,0,1.1,2.12C113.85,106.79,114.17,107.19,114.27,107.34ZM107.6,59.5a6.21,6.21,0,0,1,4.67,1.92,6.52,6.52,0,0,1,1.85,4.68,7.41,7.41,0,0,1-.67,3.1,9,9,0,0,1-1.81,2.59A8.24,8.24,0,0,1,109,73.56a7.8,7.8,0,0,1-3.06.63,6.32,6.32,0,0,1-4.72-1.93,6.53,6.53,0,0,1-1.88-4.75,7,7,0,0,1,.7-3.1,9.26,9.26,0,0,1,1.85-2.56,8.61,8.61,0,0,1,2.63-1.72A7.85,7.85,0,0,1,107.6,59.5Z"/><path class="cls-2" d="M130.3,105.38c-.05.47-.47,1-1.26,1.45a15.08,15.08,0,0,1-2.87,1.38,27.8,27.8,0,0,1-3.61,1.06,16.57,16.57,0,0,1-3.49.43,3.94,3.94,0,0,1-2.72-.67,3.25,3.25,0,0,1-.66-2.32c0-1.25,0-2.59.11-4s.19-2.8.32-4.17.27-2.62.43-3.77l.39-3c.21-1.78.36-3.34.44-4.68s.11-2.44.11-3.34c0-2-.26-3.16-.78-3.37a5.7,5.7,0,0,1,3.14-2.75A12.34,12.34,0,0,1,125,76.54a9.41,9.41,0,0,1,4.2.95,5,5,0,0,1,2.63,3.06,35.57,35.57,0,0,1,5.81-2.94,15.63,15.63,0,0,1,5.82-1.22,9.27,9.27,0,0,1,3.73.74,8.69,8.69,0,0,1,2.91,2.09,9.47,9.47,0,0,1,1.88,3.1,10.36,10.36,0,0,1,.67,3.73,22.86,22.86,0,0,1-.35,3.89c-.24,1.34-.5,2.63-.79,3.89s-.55,2.46-.78,3.61a15.35,15.35,0,0,0-.36,3.07,4.92,4.92,0,0,0,.47,2.2,1.57,1.57,0,0,0,1.5.94h.23a5.4,5.4,0,0,1-1,2.71,7.54,7.54,0,0,1-2.08,1.93,9,9,0,0,1-2.83,1.13,14.08,14.08,0,0,1-3.14.36,9.36,9.36,0,0,1-6.09-1.77,6.55,6.55,0,0,1-2.16-5.38,16,16,0,0,1,.27-2.83c.19-1,.4-2,.63-3.06s.46-2.11.67-3.19a16,16,0,0,0,.31-3.1,2.86,2.86,0,0,0-.47-1.88,1.55,1.55,0,0,0-1.26-.55,4.1,4.1,0,0,0-1.72.43,13.82,13.82,0,0,0-1.89,1.06q-.24,4-.67,7.82C130.92,99.87,130.61,102.55,130.3,105.38Z"/><path class="cls-2" d="M177.36,80.24q.39-4.87.67-9.23t.27-6.8a20.07,20.07,0,0,0-.2-3.1,2.07,2.07,0,0,0-.74-1.53,4.28,4.28,0,0,1,2.43-3.46,10.11,10.11,0,0,1,4.87-1.18,11.33,11.33,0,0,1,3,.39,9.11,9.11,0,0,1,2.63,1.18,6,6,0,0,1,1.89,2,5.86,5.86,0,0,1,.7,2.91v.79q-.93,9.66-1.92,19.36t-1.61,19.21a11.1,11.1,0,0,1-1,4.13,9,9,0,0,1-2.08,2.79,8.17,8.17,0,0,1-2.79,1.61,9.58,9.58,0,0,1-6.17,0,7.72,7.72,0,0,1-2.59-1.46,14.46,14.46,0,0,1-4.56,1.38,35.09,35.09,0,0,1-4.09.27,9.83,9.83,0,0,1-4.94-1.25,12.06,12.06,0,0,1-3.74-3.34,15.68,15.68,0,0,1-2.35-4.84,19.8,19.8,0,0,1-.83-5.73,21.57,21.57,0,0,1,1-6.48,19.69,19.69,0,0,1,3-5.86,15.93,15.93,0,0,1,4.71-4.24,12.2,12.2,0,0,1,6.33-1.65,9.16,9.16,0,0,1,4.44,1.06A15.16,15.16,0,0,1,177.36,80.24Zm-2.28,18.54q.24-1.09.51-3.18c.18-1.39.41-2.95.67-4.68a8.64,8.64,0,0,0-2.48-3.73,4.75,4.75,0,0,0-2.94-1.14,4.54,4.54,0,0,0-3.5,1.77,6.65,6.65,0,0,0-1.53,4.52,12.55,12.55,0,0,0,.27,2.39,7.31,7.31,0,0,0,1.14,2.64,7.22,7.22,0,0,0,2.4,2.12,8.47,8.47,0,0,0,4.12.86,3.08,3.08,0,0,0,.51,0,5.13,5.13,0,0,1,.52,0Z"/><path class="cls-2" d="M211.77,107.34a24,24,0,0,1-3.89,1.49,13.43,13.43,0,0,1-3.73.55,9.23,9.23,0,0,1-3.85-.78,8.61,8.61,0,0,1-3-2.16,9.71,9.71,0,0,1-1.88-3.26,12.06,12.06,0,0,1-.67-4.09,24.66,24.66,0,0,1,.27-3.57c.19-1.23.37-2.44.55-3.62s.37-2.3.55-3.37a17.08,17.08,0,0,0,.28-3,6.18,6.18,0,0,0-.51-2.55,1.64,1.64,0,0,0-1.53-1.14h-.16a5.4,5.4,0,0,1,1-2.71,7.4,7.4,0,0,1,2.08-1.93,9.31,9.31,0,0,1,2.79-1.14,14.12,14.12,0,0,1,3.11-.35,9.2,9.2,0,0,1,6,1.81,6.13,6.13,0,0,1,2.2,5,15.7,15.7,0,0,1-.35,3.27c-.23,1.12-.5,2.35-.78,3.69s-.55,2.79-.79,4.36a34.5,34.5,0,0,0-.35,5.18c0,.89,0,1.76.11,2.6a13.05,13.05,0,0,0,.44,2.35,5.19,5.19,0,0,0,1.1,2.12C211.35,106.79,211.66,107.19,211.77,107.34ZM205.09,59.5a6.23,6.23,0,0,1,4.68,1.92,6.51,6.51,0,0,1,1.84,4.68,7.26,7.26,0,0,1-.67,3.1,8.74,8.74,0,0,1-1.8,2.59,8.17,8.17,0,0,1-2.64,1.77,7.76,7.76,0,0,1-3.06.63,6.3,6.3,0,0,1-4.71-1.93,6.5,6.5,0,0,1-1.89-4.75,7,7,0,0,1,.71-3.1,9,9,0,0,1,1.84-2.56A8.54,8.54,0,0,1,202,60.13,7.76,7.76,0,0,1,205.09,59.5Z"/><path class="cls-3" d="M245.08,120.46a11.87,11.87,0,0,1-2.12,6,15.71,15.71,0,0,1-4.36,4.13,18.89,18.89,0,0,1-5.54,2.35,23.27,23.27,0,0,1-5.66.75,19.87,19.87,0,0,1-7.07-1.11,13.92,13.92,0,0,1-4.79-2.93,11.24,11.24,0,0,1-2.75-4,12.15,12.15,0,0,1-.87-4.49,11.15,11.15,0,0,1,.59-3.61,11,11,0,0,1,1.65-3.11,7.77,7.77,0,0,1,2.63-2.16,7.68,7.68,0,0,1,3.46-.78,8.66,8.66,0,0,1,3.07.47,5.61,5.61,0,0,1,2,1.26,4.85,4.85,0,0,1,1.14,1.76,6.11,6.11,0,0,1-.67,5.42,3.48,3.48,0,0,1-2.67,1.69,2.65,2.65,0,0,0,1.26,1.65,4.06,4.06,0,0,0,2.12.55,5.43,5.43,0,0,0,5.34-5.24l1.41-13.93a11.72,11.72,0,0,1-7.46,2.83,11.16,11.16,0,0,1-5.19-1.14,10.85,10.85,0,0,1-3.65-3,12.82,12.82,0,0,1-2.16-4.36,18.73,18.73,0,0,1-.71-5.15,20.71,20.71,0,0,1,1.5-8A20.23,20.23,0,0,1,219.54,80a17.43,17.43,0,0,1,5.58-4,15.31,15.31,0,0,1,6.37-1.42,14.27,14.27,0,0,1,6.59,1.65,8.17,8.17,0,0,1,2.79-1.61,9.84,9.84,0,0,1,3.11-.51,9.39,9.39,0,0,1,5.3,1.53,5.12,5.12,0,0,1,2.47,4.13,5,5,0,0,0-1.61,2.39c-.23.87-.48,1.82-.74,2.87s-.45,2.33-.71,4.16-.54,3.89-.82,6.17-.58,4.68-.87,7.19-.56,4.92-.82,7.23-.49,4.4-.67,6.28S245.18,119.41,245.08,120.46Zm-10-36.76a10.91,10.91,0,0,0-6.52,2.9,9.4,9.4,0,0,0-2.12,3,8.91,8.91,0,0,0-.79,3.77,5,5,0,0,0,1.1,3.38A3.52,3.52,0,0,0,229.52,98c1.52,0,3.09-.83,4.72-2.51q.22-3,.47-5.89T235.1,83.7Z"/><path class="cls-3" d="M270.85,107.34a24,24,0,0,1-3.89,1.49,13.48,13.48,0,0,1-3.73.55,9,9,0,0,1-3.93-.82,8.85,8.85,0,0,1-2.95-2.24A9.61,9.61,0,0,1,254.5,103a13.17,13.17,0,0,1-.62-4.12,28.79,28.79,0,0,1,.23-3.54c.16-1.2.32-2.38.47-3.53s.32-2.27.47-3.34a20.13,20.13,0,0,0,.24-3,8,8,0,0,0-.43-2.75,1.57,1.57,0,0,0-1.53-1.18h-.24a5.53,5.53,0,0,1,1-2.71,7.36,7.36,0,0,1,2.08-1.92,9.06,9.06,0,0,1,2.79-1.14,13.54,13.54,0,0,1,3.11-.35,12.25,12.25,0,0,1,4.08.66,6.14,6.14,0,0,1,2.91,2l.47.7A30.64,30.64,0,0,1,273.83,76a11.23,11.23,0,0,1,5.34-1.14,9,9,0,0,1,3.7.7,7.59,7.59,0,0,1,4.2,4.76,11,11,0,0,1,.51,3.34,13.16,13.16,0,0,1-3,8.17,12,12,0,0,1-3.69,3,10.41,10.41,0,0,1-5,1.18c-1.93,0-3.28-.56-4-1.69a6.27,6.27,0,0,1-1.14-3.57,4.49,4.49,0,0,1,.75-2.83,2.25,2.25,0,0,1,1.84-.94,6.06,6.06,0,0,1,.75,0l.67,0a1.13,1.13,0,0,0,.82-.27,1.67,1.67,0,0,0,.28-1.14,1.74,1.74,0,0,0-.48-1.41,1.51,1.51,0,0,0-1-.4,4.28,4.28,0,0,0-2,.63,16.42,16.42,0,0,0-2.16,1.42q-.56,2.75-1.26,6a35.06,35.06,0,0,0-.71,7.46,24.71,24.71,0,0,0,.12,2.51,13,13,0,0,0,.43,2.28,5.15,5.15,0,0,0,1.14,2.12C270.41,106.79,270.74,107.19,270.85,107.34Z"/><path class="cls-3" d="M320.89,107.74a8,8,0,0,1-2.71,1.33,12.23,12.23,0,0,1-3.42.47,12.42,12.42,0,0,1-4.16-.71,6.17,6.17,0,0,1-3.14-2.27,10,10,0,0,1-3.46,2.16,14.38,14.38,0,0,1-5.19.82q-5.65,0-8-2.28a8.53,8.53,0,0,1-2.36-6.44,12.91,12.91,0,0,1,1.26-5.73,14.93,14.93,0,0,1,3.3-4.48,14.44,14.44,0,0,1,4.71-2.91,15.09,15.09,0,0,1,5.42-1,13.56,13.56,0,0,1,4,.63,3.53,3.53,0,0,0-2.24-1.77,11.21,11.21,0,0,0-3.41-.51,14.38,14.38,0,0,0-3.93.51c-1.21.34-1.86.75-2,1.22A3.9,3.9,0,0,1,294,85a6.74,6.74,0,0,1-.74-3.22,6,6,0,0,1,3-5.22q3-2,10.1-2a42.38,42.38,0,0,1,5.93.4,16.13,16.13,0,0,1,5.06,1.49,8.7,8.7,0,0,1,3.5,3.1,9.53,9.53,0,0,1,1.3,5.23,48.72,48.72,0,0,1-.32,5.18q-.31,2.91-.7,5.85c-.27,2-.5,3.83-.71,5.58a37.83,37.83,0,0,0-.32,4.28C320.1,107,320.37,107.74,320.89,107.74ZM303.37,52a2.22,2.22,0,0,1,2.2-1.5,4.51,4.51,0,0,1,2.12.59,8.72,8.72,0,0,1,2,1.53,8.4,8.4,0,0,1,1.54,2.12,5.31,5.31,0,0,1,.59,2.36,5.07,5.07,0,0,1-.75,1.93c-.5.91-1,1.93-1.61,3.06s-1.12,2.25-1.61,3.38a7.24,7.24,0,0,0-.75,2.79c0,.47.16.73.47.78a4.57,4.57,0,0,1-2.82,1,5.45,5.45,0,0,1-2.6-.58A6.29,6.29,0,0,1,299.25,66a5.71,5.71,0,0,1-.36-1.89,13.26,13.26,0,0,1,1.3-5.3C301.05,56.87,302.11,54.57,303.37,52Zm3.22,50.51c0-.42,0-.82,0-1.22s0-.77,0-1.14c0-1,.05-2.12.16-3.22s.29-2.59.55-4.47a3.86,3.86,0,0,0-.82-.24,5,5,0,0,0-.83-.08,5.13,5.13,0,0,0-3.93,1.81A5.88,5.88,0,0,0,300,98a4.09,4.09,0,0,0,1.57,3.42,5.88,5.88,0,0,0,3.7,1.22,4.16,4.16,0,0,0,.66,0Z"/><path class="cls-3" d="M358.44,89.53a9.29,9.29,0,0,1-3.41,3,8.56,8.56,0,0,1-3.58.86,6.11,6.11,0,0,1-3.89-1.26,3.53,3.53,0,0,1-1.33-4.34,9.7,9.7,0,0,1,.62-1.25c.24-.4.46-.73.67-1a1.37,1.37,0,0,0,.32-.75c0-.26-.21-.45-.63-.58a3.68,3.68,0,0,0-.87-.2,1.38,1.38,0,0,0-1.29.78,9.2,9.2,0,0,0-.75,1.88l-.94,9.48a36.7,36.7,0,0,0,4.56-.36c1.2-.18,1.93-.48,2.2-.9a3.11,3.11,0,0,1,1.72,1.78,7.05,7.05,0,0,1,.63,3,6.68,6.68,0,0,1-1.1,3.65,4.61,4.61,0,0,1-3.53,2.06l-5.35-.31q-.47,4.47-.82,8.87c-.24,2.94-.46,5.89-.67,8.88a11,11,0,0,1-1,4.13,8.7,8.7,0,0,1-2,2.75,8.27,8.27,0,0,1-2.75,1.57,9.79,9.79,0,0,1-3.11.51,9.47,9.47,0,0,1-5.26-1.54,5.1,5.1,0,0,1-2.51-4.14,6.52,6.52,0,0,0,1.8-2.71,23,23,0,0,0,1.06-4.3q.44-2.6.71-6.26t.75-8.79l-2.28-.07a2.46,2.46,0,0,1-2.32-1.14,6.5,6.5,0,0,1-.51-2.79,13.41,13.41,0,0,1,.28-2.32,2.53,2.53,0,0,1,.58-1.22,1.65,1.65,0,0,1,.95-.47,10.64,10.64,0,0,1,1.41-.08h2.52c.2-2.29.36-4.37.47-6.22s.18-3.3.23-4.35a11.68,11.68,0,0,1,4.72-9.08q4.39-3.36,12.88-3.37a15,15,0,0,1,5.07.86A14.17,14.17,0,0,1,356.83,76a11.05,11.05,0,0,1,2.79,3.37,8.63,8.63,0,0,1,1,4.11A10,10,0,0,1,358.44,89.53Z"/><path class="cls-3" d="M379.5,107.34a24,24,0,0,1-3.89,1.49,13.48,13.48,0,0,1-3.73.55,9.23,9.23,0,0,1-3.85-.78,8.51,8.51,0,0,1-2.95-2.16,9.71,9.71,0,0,1-1.88-3.26,12.06,12.06,0,0,1-.67-4.09,24.66,24.66,0,0,1,.27-3.57c.19-1.23.37-2.44.55-3.62s.37-2.3.55-3.37a18.13,18.13,0,0,0,.28-3,6.18,6.18,0,0,0-.51-2.55,1.65,1.65,0,0,0-1.54-1.14H362a5.4,5.4,0,0,1,1-2.71A7.4,7.4,0,0,1,365,77.25a9.31,9.31,0,0,1,2.79-1.14,14.1,14.1,0,0,1,3.1-.35A9.21,9.21,0,0,1,377,77.57a6.13,6.13,0,0,1,2.2,5,15.7,15.7,0,0,1-.35,3.27c-.24,1.12-.5,2.35-.79,3.69s-.55,2.79-.78,4.36a34.43,34.43,0,0,0-.36,5.18c0,.89,0,1.76.12,2.6a13.06,13.06,0,0,0,.43,2.35,5.45,5.45,0,0,0,1.1,2.12C379.08,106.79,379.39,107.19,379.5,107.34ZM372.82,59.5a6.19,6.19,0,0,1,4.67,1.92,6.52,6.52,0,0,1,1.85,4.68,7.26,7.26,0,0,1-.67,3.1,8.93,8.93,0,0,1-1.8,2.59,8.17,8.17,0,0,1-2.64,1.77,7.76,7.76,0,0,1-3.06.63,6.28,6.28,0,0,1-4.71-1.93,6.5,6.5,0,0,1-1.89-4.75,7,7,0,0,1,.71-3.1,9,9,0,0,1,1.84-2.56,8.61,8.61,0,0,1,2.63-1.72A7.85,7.85,0,0,1,372.82,59.5Z"/><path class="cls-3" d="M394.82,95.17A5.54,5.54,0,0,0,397.6,98a9.71,9.71,0,0,0,4.21.91,13,13,0,0,0,3.65-.55,12,12,0,0,0,3.42-1.65,2.7,2.7,0,0,1,1.18,2.51,6.79,6.79,0,0,1-1.06,3.38,13.55,13.55,0,0,1-2.91,3.38,16.84,16.84,0,0,1-4.32,2.63,13.29,13.29,0,0,1-5.31,1.06,16.26,16.26,0,0,1-5.85-1.06,15.23,15.23,0,0,1-4.95-3.06,15,15,0,0,1-3.45-4.84,14.79,14.79,0,0,1-1.3-6.28,17.35,17.35,0,0,1,1.65-7.5,21.37,21.37,0,0,1,4.36-6.17,20.59,20.59,0,0,1,6.17-4.2A17.3,17.3,0,0,1,400.24,75a17.6,17.6,0,0,1,3.45.36A10.34,10.34,0,0,1,407,76.58a8.22,8.22,0,0,1,2.55,2.36,6.22,6.22,0,0,1,1,3.65,5.38,5.38,0,0,1-1.73,3.93,7.08,7.08,0,0,1-1.69,1.14,4.21,4.21,0,0,1-1.85.43,3.21,3.21,0,0,1-1.8-.51,2.6,2.6,0,0,1-1.1-1.37,1.11,1.11,0,0,0,.7-1.1,2,2,0,0,0-.63-1.38,2.26,2.26,0,0,0-1.72-.66,4.07,4.07,0,0,0-2.16.7,8.16,8.16,0,0,0-2.13,2,11.56,11.56,0,0,0-1.61,3,10.71,10.71,0,0,0-.62,3.69A5.93,5.93,0,0,0,394.82,95.17Z"/><path class="cls-3" d="M444,107.74a8.07,8.07,0,0,1-2.71,1.33,12.34,12.34,0,0,1-3.42.47,12.47,12.47,0,0,1-4.17-.71,6.17,6.17,0,0,1-3.14-2.27,9.83,9.83,0,0,1-3.46,2.16,14.32,14.32,0,0,1-5.18.82q-5.66,0-8-2.28a8.49,8.49,0,0,1-2.36-6.44,12.91,12.91,0,0,1,1.26-5.73,14.6,14.6,0,0,1,3.3-4.48,14.44,14.44,0,0,1,4.71-2.91,15.09,15.09,0,0,1,5.42-1,13.61,13.61,0,0,1,4,.63A3.56,3.56,0,0,0,428,85.54a11.32,11.32,0,0,0-3.42-.51,14.48,14.48,0,0,0-3.93.51c-1.2.34-1.86.75-2,1.22A3.8,3.8,0,0,1,417.09,85a6.74,6.74,0,0,1-.75-3.22,6,6,0,0,1,3-5.22q3-2,10.09-2a42.38,42.38,0,0,1,5.93.4,16.27,16.27,0,0,1,5.07,1.49,8.76,8.76,0,0,1,3.5,3.1,9.53,9.53,0,0,1,1.29,5.23,48.49,48.49,0,0,1-.31,5.18q-.31,2.91-.71,5.85t-.71,5.58a37.45,37.45,0,0,0-.31,4.28C443.21,107,443.47,107.74,444,107.74Zm-14.3-5.27c0-.42,0-.82,0-1.22s0-.77,0-1.14c0-1,.05-2.12.16-3.22s.28-2.59.55-4.47a4,4,0,0,0-.83-.24,4.83,4.83,0,0,0-.82-.08,5.13,5.13,0,0,0-3.93,1.81A5.88,5.88,0,0,0,423.1,98a4.07,4.07,0,0,0,1.57,3.42,5.87,5.87,0,0,0,3.69,1.22,4.3,4.3,0,0,0,.67,0Z"/></svg>